<?xml version="1.0" encoding="UTF-8"?><svg id="Vrstva_2" xmlns="http://www.w3.org/2000/svg" viewBox="0 0 257.69 21.26"><defs><style>.cls-1{fill:#fff;}.cls-2{fill:#e20613;}.cls-3{fill:#1d1d1b;}</style></defs><g id="Vrstva_3"><g><path class="cls-1" d="m117.67,14.17c2.16,0,3-.75,3-2.18,0-1.56-1.13-1.82-2.76-2.08-1.2-.19-1.86-.33-1.86-1.04,0-.66.41-.94,1.6-.94.79,0,1.58.23,2.06.55l.62-.95c-.56-.37-1.4-.67-2.67-.67-1.85,0-2.76.56-2.76,2.04s1.01,1.79,2.72,2.06c1.18.18,1.9.33,1.9,1.09s-.45,1.1-1.88,1.1c-.88,0-1.74-.22-2.54-.75l-.58.89c.85.59,1.92.87,3.15.87h0Zm6.12-.1h1.12v-2.94c0-.84.21-1.44,1.44-1.44,1.11,0,1.19.56,1.19,1.34v3.04h1.11v-3.26c0-1.33-.26-2.23-1.93-2.23-1.19,0-1.71.28-1.96.59l-.1-.47-.87.07v5.3h0Zm7.69.1c1.1,0,1.69-.23,1.99-.64.14.45.4.56.95.56.24,0,.38,0,.46-.02v-.97c-.47,0-.51-.08-.51-.57v-1.8c0-1.52-.34-2.15-2.21-2.15-1.01,0-1.89.37-2.25.62l.58.87c.34-.2.89-.45,1.55-.45,1.06,0,1.24.3,1.26.94h-.27c-2.64,0-3.5.44-3.5,1.96,0,.91.36,1.64,1.95,1.64h0Zm.19-.96c-.85,0-1.08-.27-1.08-.77,0-.72.4-.96,2.51-.96h.2v.28c0,1.01-.48,1.45-1.63,1.45h0Zm6.16.96c1.11,0,1.69-.21,2.01-.63l.12.58.85-.09v-7.39h-1.12v2.54c-.25-.37-.76-.58-1.83-.58-1.84,0-2.35,1.18-2.35,2.77s.5,2.81,2.31,2.81h0Zm.25-1.02c-1.15,0-1.43-.73-1.43-1.79s.28-1.72,1.43-1.72c1.23,0,1.62.46,1.62,1.72s-.43,1.79-1.62,1.79h0Zm5.36-4.98h1.18l1.48-1.64h-1.04l-1.01.91-1.01-.91h-1.07l1.48,1.64h0Zm.56,6c1.67,0,2.34-.46,2.34-1.69s-.9-1.42-2.23-1.64c-.81-.13-1.1-.24-1.1-.67,0-.35.22-.56,1.1-.56.59,0,1.16.15,1.55.36l.53-.92c-.53-.31-1.27-.48-2.11-.48-1.59,0-2.18.58-2.18,1.59,0,1.29.89,1.5,2.18,1.7.88.14,1.18.23,1.18.67,0,.54-.33.66-1.19.66-.58,0-1.29-.16-1.89-.55l-.58.86c.73.49,1.58.65,2.4.65h0Zm5.65,0c1.03,0,1.67-.23,2.28-.7l-.59-.78c-.41.3-.83.52-1.69.52-1.2,0-1.53-.53-1.6-1.37h3.88c.04-1.7-.04-3.27-2.3-3.27s-2.66,1.27-2.66,2.8.44,2.8,2.68,2.8h0Zm-.05-4.61c1.15,0,1.23.55,1.27,1.31h-2.83c.09-.8.44-1.31,1.55-1.31h0Zm3.35,4.5h1.12v-2.94c0-.84.21-1.44,1.44-1.44,1.11,0,1.19.56,1.19,1.34v3.04h1.11v-3.26c0-1.33-.26-2.23-1.93-2.23-1.19,0-1.71.28-1.96.59l-.1-.47-.87.07v5.3h0Zm6.15-5.89h1.02l1.32-1.62h-1.36l-.98,1.62h0Zm-.02,5.89h1.1v-5.37h-1.1v5.37h0Zm2.41,0h1.12v-2.94c0-.84.15-1.44,1.38-1.44,1.11,0,1.14.56,1.14,1.34v3.04h1.11v-2.94c0-.84.16-1.44,1.39-1.44,1.11,0,1.13.56,1.13,1.34v3.04h1.12v-3.26c0-1.33-.21-2.23-1.88-2.23-1.18,0-1.77.27-2.03.63-.15-.36-.53-.63-1.61-.63-1.14,0-1.69.27-1.91.59l-.1-.47-.87.07v5.3h0Zm11.68,1.58h1.12v-2.08c.26.38.77.58,1.83.58,1.85,0,2.35-1.18,2.35-2.78s-.48-2.8-2.29-2.8c-1.18,0-1.75.24-2.04.64l-.1-.52-.87.07v6.88h0Zm2.75-2.5c-1.23,0-1.63-.47-1.63-1.73s.44-1.76,1.63-1.76,1.42.71,1.42,1.76-.29,1.73-1.42,1.73h0Zm3.54.92h1.12v-2.76c0-.93.36-1.53,1.65-1.54v-1.12c-.91.02-1.56.31-1.78.67l-.11-.61-.87.07v5.3h0Zm5.87.11c1.94,0,2.69-.98,2.69-2.8s-.76-2.8-2.69-2.8-2.69.98-2.69,2.8.76,2.8,2.69,2.8h0Zm0-1.01c-1.19,0-1.57-.65-1.57-1.76s.38-1.75,1.57-1.75,1.57.64,1.57,1.75-.39,1.76-1.57,1.76h0Zm7.26.95h1.21l2.13-5.41h-1.16l-1.56,4.08-1.55-4.08h-1.19l2.13,5.41h0Zm5.46.05c1.1,0,1.69-.23,1.99-.64.14.45.4.56.95.56.24,0,.38,0,.46-.02v-.97c-.47,0-.51-.08-.51-.57v-1.8c0-1.52-.35-2.15-2.21-2.15-1.01,0-1.89.37-2.25.62l.58.87c.34-.2.89-.45,1.55-.45,1.06,0,1.24.3,1.26.94h-.27c-2.64,0-3.5.44-3.5,1.96,0,.91.36,1.64,1.95,1.64h0Zm.19-.96c-.85,0-1.08-.27-1.08-.77,0-.72.4-.96,2.51-.96h.2v.28c0,1.01-.48,1.45-1.63,1.45h0Zm5.36-5.04h1.18l1.48-1.64h-1.04l-1.01.91-1.01-.91h-1.07l1.48,1.64h0Zm.56,6c1.67,0,2.34-.46,2.34-1.69s-.9-1.42-2.23-1.64c-.81-.13-1.1-.24-1.1-.67,0-.35.22-.56,1.1-.56.59,0,1.16.15,1.55.36l.53-.92c-.53-.31-1.27-.48-2.11-.48-1.59,0-2.18.58-2.18,1.59,0,1.29.89,1.5,2.18,1.7.88.14,1.18.23,1.18.67,0,.54-.33.66-1.19.66-.58,0-1.29-.16-1.89-.55l-.57.86c.73.49,1.58.65,2.4.65h0Zm5.65,0c1.03,0,1.67-.23,2.28-.7l-.59-.78c-.41.3-.83.52-1.69.52-1.2,0-1.53-.53-1.6-1.37h3.88c.04-1.7-.04-3.27-2.3-3.27s-2.66,1.27-2.66,2.8.44,2.8,2.68,2.8h0Zm-.05-4.61c1.15,0,1.23.55,1.27,1.31h-2.83c.09-.8.44-1.31,1.55-1.31h0Zm5.43,4.5h1.12v-2.94c0-.84.15-1.44,1.38-1.44,1.11,0,1.14.56,1.14,1.34v3.04h1.11v-2.94c0-.84.16-1.44,1.39-1.44,1.11,0,1.13.56,1.13,1.34v3.04h1.12v-3.26c0-1.33-.21-2.23-1.88-2.23-1.18,0-1.77.27-2.03.63-.15-.36-.53-.63-1.61-.63-1.14,0-1.69.27-1.91.59l-.1-.47-.87.07v5.3h0Zm9.66,0h1.1v-5.37h-1.1v5.37h0Zm0-5.95h1.12v-1.23h-1.12v1.23h0Zm3.76,5.96c.26,0,.5,0,.59-.02v-.98h-.2c-.5,0-.57-.15-.57-.62v-5.83h-1.1v5.96c0,1.11.37,1.49,1.28,1.49h0Zm3.08.09c1.1,0,1.69-.23,1.99-.64.14.45.4.56.95.56.24,0,.38,0,.46-.02v-.97c-.47,0-.51-.08-.51-.57v-1.8c0-1.52-.34-2.15-2.21-2.15-1.01,0-1.89.37-2.25.62l.58.87c.34-.2.89-.45,1.55-.45,1.06,0,1.24.3,1.26.94h-.27c-2.64,0-3.5.44-3.5,1.96,0,.91.36,1.64,1.95,1.64h0Zm.19-.96c-.85,0-1.08-.27-1.08-.77,0-.72.4-.96,2.51-.96h.2v.28c0,1.01-.48,1.45-1.63,1.45h0Zm-.3-5.04h1.02l1.73-1.64h-1.35l-1.4,1.64h0Zm6.87,6c.99,0,1.51-.29,2.09-.82l-.75-.71c-.39.36-.74.54-1.29.54-1.26,0-1.58-.68-1.58-1.76s.34-1.74,1.58-1.74c.66,0,1,.27,1.24.52l.81-.77c-.44-.5-1.09-.83-2.05-.83-2.17,0-2.7,1.18-2.7,2.8s.55,2.79,2.65,2.79h0Zm-.89-6h1.18l1.48-1.64h-1.04l-1.01.91-1.01-.91h-1.07l1.48,1.64h0Zm3.93,5.9h1.1v-1.4l.81-.93,1.55,2.33h1.24l-2.05-3.14,1.87-2.22h-1.24l-2.19,2.58v-4.65h-1.1v7.44h0Zm5.89,1.61c1.06,0,1.51-.34,1.84-1.23l2.23-5.75h-1.17l-1.44,3.95-1.48-3.95h-1.19l2.06,5.29-.12.34c-.11.35-.29.44-.83.44h-.4v.89c.12,0,.39,0,.5,0h0Zm4.04-1.61h1.35v-1.44h-1.35v1.44h0Zm4.16-3.12c1.39,0,2.08-.91,2.08-2.14s-.69-2.14-2.08-2.14-2.07.91-2.07,2.14.68,2.14,2.07,2.14h0Zm0-.27c-1.27,0-1.8-.8-1.8-1.87s.53-1.87,1.8-1.87,1.81.8,1.81,1.87-.54,1.87-1.81,1.87h0Zm.68-.54h.45l-.59-1.03c.47-.09.6-.39.6-.8,0-.51-.19-.81-.94-.81h-1.2v2.64h.41v-.99h.71l.56.99h0Zm-1.27-1.37v-.89h.77c.39,0,.54.1.54.45s-.16.44-.54.44h-.78Z"/><polygon class="cls-1" points="100.83 0 0 0 0 21.26 100.83 21.26 100.83 0 100.83 0"/><polygon class="cls-1" points="18.52 18.52 2.74 18.52 2.74 2.75 18.52 2.75 18.52 18.52 18.52 18.52"/><path class="cls-2" d="m2.74,2.75h15.77v15.77H2.74V2.75h0ZM.69.69v19.89h99.45v-2.06H20.58V.69H.69Z"/><polygon class="cls-2" points="8.23 8.23 3.43 8.23 3.43 3.43 8.23 3.43 8.23 8.23 8.23 8.23"/><polygon class="cls-2" points="8.23 17.84 3.43 17.84 3.43 13.04 8.23 13.04 8.23 17.84 8.23 17.84"/><polygon class="cls-2" points="13.03 13.03 8.23 13.03 8.23 8.23 13.03 8.23 13.03 13.03 13.03 13.03"/><polygon class="cls-2" points="17.83 8.23 13.03 8.23 13.03 3.43 17.83 3.43 17.83 8.23 17.83 8.23"/><polygon class="cls-2" points="17.83 17.84 13.03 17.84 13.03 13.04 17.83 13.04 17.83 17.84 17.83 17.84"/><polygon class="cls-3" points="20.56 18.52 100.14 18.52 100.14 .69 20.56 .69 20.56 18.52 20.56 18.52"/><path class="cls-1" d="m95.38,5.34c.14,0,.27-.08.27-.27,0-.21-.14-.27-.27-.27h-.4v.54h.4Zm-.7-.83h.72c.37,0,.57.25.57.56,0,.22-.13.44-.37.52l.19.29c.08.11.11.09.24.09v.27c-.24.02-.33.02-.46-.18l-.3-.45h-.29v.59h-.3v-1.7h0Zm.6,2.21c.73,0,1.34-.62,1.34-1.34s-.6-1.32-1.34-1.32-1.32.59-1.32,1.32.59,1.34,1.32,1.34m0-2.94c.89,0,1.61.71,1.61,1.6s-.71,1.61-1.61,1.61-1.61-.71-1.61-1.61.72-1.6,1.61-1.6m-7.36,7.35h3.2c.14,0,.21-.08.14-.22l-.71-1.86c-.32-.81-.6-1.56-.92-2.4-.06-.17-.16-.17-.22,0-.32.84-.6,1.59-.92,2.4l-.71,1.86c-.06.14.02.22.16.22m.41-6.5c.06-.16.19-.26.37-.26h1.65c.17,0,.3.07.37.24l4.36,10.53c.1.22,0,.37-.24.37h-1.44c-.18,0-.3-.1-.37-.26l-.86-2.08c-.05-.13-.13-.17-.26-.17h-4.77c-.13,0-.21.05-.26.17l-.84,2.08c-.06.16-.19.26-.37.26h-1.4c-.24,0-.35-.14-.25-.37l4.31-10.51h0Zm-17.1.06c0-.21.11-.32.32-.32h1.56c.16,0,.28.07.38.21l3.85,5.82c.37.56.76,1.15,1.17,1.83.07.11.18.09.18-.03-.02-.65-.05-1.62-.05-2.27v-5.23c0-.21.11-.32.32-.32h1.27c.21,0,.32.11.32.32v10.5c0,.21-.11.32-.32.32h-1.51c-.16,0-.29-.06-.38-.21l-3.9-5.82c-.38-.56-.76-1.14-1.18-1.83-.06-.11-.17-.1-.17.03.02.65.05,1.62.05,2.27v5.23c0,.21-.11.32-.32.32h-1.27c-.21,0-.32-.11-.32-.32V4.68h0Zm-6.88,0c0-.21.11-.32.32-.32h1.29c.21,0,.32.11.32.32v10.5c0,.21-.11.32-.32.32h-1.29c-.21,0-.32-.11-.32-.32V4.68h0Zm-10.94,5.06h2.48c.61,0,.97-.16,1.31-.46.32-.3.49-.8.49-1.27,0-.51-.18-1-.51-1.3-.32-.3-.68-.46-1.29-.46h-2.48c-.09,0-.16.06-.16.16v3.18c0,.1.06.16.16.16m-2.1-5.06c0-.21.11-.32.32-.32h4.37c1.25,0,2,.34,2.64.97.67.65,1.05,1.64,1.05,2.67s-.4,1.99-1.05,2.64c-.29.28-.64.52-1.02.68-.11.05-.14.11-.08.21l1.29,1.91c.13.19.25.32.48.38.21.06.56.06.95.06.21,0,.32.11.32.32v1.18c0,.14-.06.25-.22.3-.14.05-.57.05-.73.05-1.02,0-1.65-.19-2.31-1.16l-1.81-2.7c-.11-.17-.27-.26-.48-.26h-1.62c-.09,0-.16.07-.16.16v3.4c0,.21-.11.32-.32.32h-1.3c-.21,0-.32-.11-.32-.32V4.68h0Zm-12.55,9.73c-.81-.79-1.21-1.81-1.21-3.42v-6.31c0-.21.11-.32.32-.32l1.34.02c.21,0,.32.11.32.32v6.55c0,.91.24,1.45.7,1.94.45.49,1.17.72,1.89.72s1.5-.22,1.96-.72c.45-.49.67-1.03.67-1.94v-6.57c0-.21.11-.32.32-.32h1.33c.21,0,.32.11.32.32v6.39c0,1.59-.4,2.54-1.19,3.35-.83.84-2.1,1.31-3.41,1.31s-2.54-.49-3.36-1.32m-11.72-4.16h2.72c.7,0,1.13-.18,1.5-.53.38-.35.57-.91.57-1.46s-.19-1.14-.57-1.49c-.36-.33-.8-.52-1.5-.52h-2.72c-.1,0-.16.06-.16.16v3.69c0,.09.06.16.16.16m-2.1-5.57c0-.21.11-.32.32-.32h4.58c1.35,0,2.15.35,2.85,1.04.7.7,1.11,1.76,1.11,2.86s-.43,2.13-1.13,2.83c-.68.68-1.53,1.03-2.9,1.03h-2.73c-.1,0-.16.06-.16.16v2.89c0,.21-.11.32-.32.32h-1.3c-.21,0-.32-.11-.32-.32V4.68h0Z"/></g></g></svg>